<?xml version="1.0" encoding="UTF-8"?>
<svg id="Layer_2" data-name="Layer 2" xmlns="http://www.w3.org/2000/svg" viewBox="0 0 50.11 50.11">
  <defs>
    <style>
      .cls-1 {
        fill: #231f20;
        stroke: #fff;
        stroke-miterlimit: 10;
      }
    </style>
  </defs>
  <g id="Layer_1-2" data-name="Layer 1">
    <path class="cls-1" d="m47.01,29.33l-9.95,5.54c-.85.47-1.54,1.18-2,2.03l-5.39,10.04c-1.89,3.53-6.94,3.57-8.89.07l-5.54-9.95c-.47-.85-1.18-1.54-2.03-2l-10.04-5.39c-3.53-1.89-3.57-6.94-.07-8.89l9.95-5.54c.85-.47,1.54-1.18,2-2.03l5.39-10.04c1.89-3.53,6.94-3.57,8.89-.07l5.54,9.95c.47.85,1.18,1.54,2.03,2l10.04,5.39c3.53,1.89,3.57,6.94.07,8.89Z"/>
  </g>
</svg>